<svg width="100" height="106" viewBox="0 0 100 106" fill="none" xmlns="http://www.w3.org/2000/svg">
<rect y="10.5872" width="100" height="95.4128" rx="15" fill="#70919B"/>
<path d="M10.4762 6.77063C10.4762 3.08198 13.461 0.0917358 17.1429 0.0917358C20.8248 0.0917358 23.8095 3.08198 23.8095 6.77063V15.3578C23.8095 19.0464 20.8248 22.0367 17.1429 22.0367C13.461 22.0367 10.4762 19.0464 10.4762 15.3578V6.77063Z" fill="#8EB8C6"/>
<path d="M32.381 6.77063C32.381 3.08198 35.3657 0.0917358 39.0476 0.0917358C42.7295 0.0917358 45.7143 3.08198 45.7143 6.77063V15.3578C45.7143 19.0464 42.7295 22.0367 39.0476 22.0367C35.3657 22.0367 32.381 19.0464 32.381 15.3578V6.77063Z" fill="#8EB8C6"/>
<path d="M54.2857 6.77063C54.2857 3.08198 57.2705 0.0917358 60.9524 0.0917358C64.6343 0.0917358 67.619 3.08198 67.619 6.77063V15.3578C67.619 19.0464 64.6343 22.0367 60.9524 22.0367C57.2705 22.0367 54.2857 19.0464 54.2857 15.3578V6.77063Z" fill="#8EB8C6"/>
<path d="M76.1905 6.77063C76.1905 3.08198 79.1753 0.0917358 82.8572 0.0917358C86.5391 0.0917358 89.5238 3.08198 89.5238 6.77063V15.3578C89.5238 19.0464 86.5391 22.0367 82.8572 22.0367C79.1753 22.0367 76.1905 19.0464 76.1905 15.3578V6.77063Z" fill="#8EB8C6"/>
<path d="M62.9877 37.3027C65.0195 37.3027 66.6667 38.9499 66.6667 40.9817V40.9817C66.6667 42.082 66.5523 42.9759 66.3235 43.6636C66.0947 44.3283 65.8659 44.8899 65.6371 45.3484L46.8297 84.1324C46.4407 84.9347 45.8916 85.6223 45.1823 86.1954C44.473 86.7455 43.5235 87.0206 42.3338 87.0206V87.0206C39.5173 87.0206 37.69 84.0509 38.9596 81.5368L55.3754 49.0273C55.8101 48.248 56.2334 47.5374 56.6452 46.8956V46.8956C57.1512 46.1218 56.6313 45.0045 55.7068 45.0045H34.3372C33.811 45.0045 33.3534 44.8097 32.9644 44.42C32.5754 44.0303 32.381 43.5719 32.381 43.0447V43.0447C32.381 39.8735 34.9517 37.3027 38.1229 37.3027H62.9877Z" fill="#F3F3F3"/>
</svg>
